<svg width="20" height="20" viewBox="0 0 20 20" fill="none" xmlns="http://www.w3.org/2000/svg">
<g clip-path="url(#clip0_1_14772)">
<path fill-rule="evenodd" clip-rule="evenodd" d="M9.99683 0.00683594C7.28187 0.00683594 6.94142 0.0183439 5.87516 0.0669947C4.81111 0.115526 4.08441 0.284535 3.44853 0.531677C2.79115 0.787114 2.23365 1.12894 1.67786 1.68469C1.1221 2.24048 0.780277 2.79798 0.524841 3.45537C0.277698 4.09124 0.108691 4.81795 0.0601587 5.88199C0.0115079 6.94827 0 7.2887 0 10.0037C0 12.7187 0.0115079 13.0591 0.0601587 14.1254C0.108691 15.1894 0.277698 15.9162 0.524841 16.552C0.780277 17.2094 1.1221 17.7669 1.67786 18.3227C2.23365 18.8784 2.79115 19.2202 3.44853 19.4757C4.08441 19.7228 4.81111 19.8918 5.87516 19.9404C6.94142 19.989 7.28187 20.0005 9.99683 20.0005C12.7118 20.0005 13.0522 19.989 14.1185 19.9404C15.1826 19.8918 15.9092 19.7228 16.5452 19.4757C17.2025 19.2202 17.76 18.8784 18.3158 18.3227C18.8716 17.7669 19.2134 17.2094 19.4689 16.552C19.716 15.9162 19.885 15.1894 19.9335 14.1254C19.9822 13.0591 19.9937 12.7187 19.9937 10.0037C19.9937 7.2887 19.9822 6.94827 19.9335 5.88199C19.885 4.81795 19.716 4.09124 19.4689 3.45537C19.2134 2.79798 18.8716 2.24048 18.3158 1.68469C17.76 1.12894 17.2025 0.787114 16.5452 0.531677C15.9092 0.284535 15.1826 0.115526 14.1185 0.0669947C13.0522 0.0183439 12.7118 0.00683594 9.99683 0.00683594ZM6.66457 10.0037C6.66457 11.8441 8.15647 13.336 9.99683 13.336C11.8372 13.336 13.3292 11.8441 13.3292 10.0037C13.3292 8.1633 11.8372 6.6714 9.99683 6.6714C8.15647 6.6714 6.66457 8.1633 6.66457 10.0037ZM4.86333 10.0037C4.86333 7.1685 7.16167 4.87017 9.99683 4.87017C12.832 4.87017 15.1303 7.1685 15.1303 10.0037C15.1303 12.8388 12.832 15.1372 9.99683 15.1372C7.16167 15.1372 4.86333 12.8388 4.86333 10.0037ZM15.3332 5.86696C15.9957 5.86696 16.5328 5.32989 16.5328 4.66735C16.5328 4.00481 15.9957 3.46771 15.3332 3.46771C14.6707 3.46771 14.1336 4.00481 14.1336 4.66735C14.1336 5.32989 14.6707 5.86696 15.3332 5.86696Z" fill="white" fill-opacity="0.7"/>
</g>
<defs>
<clipPath id="clip0_1_14772">
<rect width="20" height="20" fill="white"/>
</clipPath>
</defs>
</svg>
