<svg width="20" height="20" viewBox="0 0 20 20" fill="none" xmlns="http://www.w3.org/2000/svg">
<g clip-path="url(#clip0_1_14768)">
<path fill-rule="evenodd" clip-rule="evenodd" d="M4.55094 19.5396V6.66598H0.272461V19.5396H4.55094V19.5396ZM2.41215 4.90895C3.90367 4.90895 4.83277 3.91957 4.83277 2.68422C4.80457 1.42141 3.90367 0.459961 2.44012 0.459961C0.976328 0.46 0.0195312 1.42145 0.0195312 2.68426C0.0195312 3.91961 0.948125 4.90898 2.38398 4.90898L2.41215 4.90895ZM6.91891 19.5396C6.91891 19.5396 6.97504 7.87387 6.91891 6.66602H11.198V8.53297H11.1696C11.7323 7.65445 12.746 6.36371 15.054 6.36371C17.8698 6.36371 19.9804 8.20367 19.9804 12.158V19.5396H15.702V12.6526C15.702 10.9221 15.0829 9.74125 13.5341 9.74125C12.3523 9.74125 11.648 10.5373 11.3387 11.3069C11.2256 11.5808 11.198 11.9655 11.198 12.3503V19.5396H6.91891Z" fill="white" fill-opacity="0.7"/>
</g>
<defs>
<clipPath id="clip0_1_14768">
<rect width="20" height="20" fill="white"/>
</clipPath>
</defs>
</svg>
